<mxfile host="65bd71144e" modified="2020-10-29T01:25:26.232Z" agent="5.0 (Windows NT 10.0; Win64; x64) AppleWebKit/537.36 (KHTML, like Gecko) Code/1.50.1 Chrome/83.0.4103.122 Electron/9.2.1 Safari/537.36" version="13.6.5" etag="22-GrLNu0ftoKh_5rnTg">
    <diagram id="pcPd0Ah7uBvy_wi67mdr" name="第 1 页">
        <mxGraphModel dx="14" dy="566" grid="1" gridSize="10" guides="1" tooltips="1" connect="1" arrows="1" fold="1" page="1" pageScale="1" pageWidth="827" pageHeight="1169" math="0" shadow="0">
            <root>
                <mxCell id="0"/>
                <mxCell id="1" parent="0"/>
                <mxCell id="423" value="" style="rounded=0;whiteSpace=wrap;html=1;fillColor=#60a917;strokeColor=#2D7600;fontColor=#ffffff;" vertex="1" parent="1">
                    <mxGeometry x="1600" y="525" width="120" height="60" as="geometry"/>
                </mxCell>
                <mxCell id="424" value="" style="ellipse;whiteSpace=wrap;html=1;aspect=fixed;" vertex="1" parent="1">
                    <mxGeometry x="1390" y="640" width="80" height="80" as="geometry"/>
                </mxCell>
                <mxCell id="425" value="" style="endArrow=none;html=1;exitX=1;exitY=0.5;exitDx=0;exitDy=0;entryX=0.5;entryY=1;entryDx=0;entryDy=0;" edge="1" parent="1" source="424" target="423">
                    <mxGeometry width="50" height="50" relative="1" as="geometry">
                        <mxPoint x="1540" y="700" as="sourcePoint"/>
                        <mxPoint x="1590" y="650" as="targetPoint"/>
                    </mxGeometry>
                </mxCell>
                <mxCell id="426" value="" style="shape=cylinder2;whiteSpace=wrap;html=1;boundedLbl=1;backgroundOutline=1;size=15;" vertex="1" parent="1">
                    <mxGeometry x="1580" y="700" width="60" height="80" as="geometry"/>
                </mxCell>
                <mxCell id="427" value="" style="pointerEvents=1;shadow=0;dashed=0;html=1;strokeColor=none;fillColor=#505050;labelPosition=center;verticalLabelPosition=bottom;outlineConnect=0;verticalAlign=top;align=center;shape=mxgraph.office.clouds.cloud;" vertex="1" parent="1">
                    <mxGeometry x="1740" y="680" width="94" height="55" as="geometry"/>
                </mxCell>
                <mxCell id="428" value="" style="pointerEvents=1;shadow=0;dashed=0;html=1;strokeColor=none;fillColor=#505050;labelPosition=center;verticalLabelPosition=bottom;verticalAlign=top;outlineConnect=0;align=center;shape=mxgraph.office.communications.room_mailbox;" vertex="1" parent="1">
                    <mxGeometry x="1470" y="780" width="60" height="57" as="geometry"/>
                </mxCell>
            </root>
        </mxGraphModel>
    </diagram>
</mxfile>